<?xml version="1.0" standalone="no"?>
<!DOCTYPE svg PUBLIC "-//W3C//DTD SVG 20010904//EN"
 "http://www.w3.org/TR/2001/REC-SVG-20010904/DTD/svg10.dtd">
<svg version="1.0" xmlns="http://www.w3.org/2000/svg"
 width="848.000000pt" height="848.000000pt" viewBox="0 0 848.000000 848.000000"
 preserveAspectRatio="xMidYMid meet">
<metadata>
Created by potrace 1.14, written by Peter Selinger 2001-2017
</metadata>
<g transform="translate(0.000000,848.000000) scale(0.100000,-0.100000)"
fill="#000000" stroke="none">
<path d="M4265 7802 c-3 -16 1 -47 10 -72 45 -125 75 -258 81 -357 l7 -105
-33 7 c-29 6 -32 5 -26 -11 16 -41 26 -135 26 -252 0 -92 4 -131 16 -153 8
-17 18 -28 21 -25 4 3 8 61 10 128 2 67 7 126 12 131 15 15 38 -41 67 -159 27
-114 45 -154 69 -154 18 0 23 9 41 77 8 31 26 71 39 88 31 42 150 119 170 111
20 -7 68 -112 68 -147 0 -17 -14 -45 -36 -73 -35 -42 -49 -86 -27 -86 6 0 59
25 119 55 121 60 216 95 258 95 l28 -1 -34 -14 c-18 -8 -90 -46 -160 -85 -189
-104 -245 -122 -359 -118 l-92 3 -21 -55 c-25 -67 -73 -263 -94 -384 -14 -80
-23 -332 -12 -342 2 -3 26 30 52 73 76 123 158 244 162 239 13 -12 -26 -94
-115 -243 -64 -109 -115 -209 -143 -283 l-44 -115 1 -162 c1 -147 -1 -163 -16
-163 -15 0 -18 17 -24 130 -6 117 -10 136 -39 197 l-32 68 2 200 c2 111 8 229
15 265 13 62 13 58 13 -110 0 -157 2 -182 23 -242 14 -40 23 -87 22 -115 -3
-72 2 -75 10 -8 4 33 17 92 28 130 11 39 30 153 42 255 16 144 79 539 104 652
2 9 -18 47 -45 84 -27 36 -49 62 -49 57 0 -8 47 -83 74 -118 5 -7 -7 -101 -32
-241 -23 -126 -51 -312 -63 -414 -21 -184 -45 -310 -59 -310 -4 0 -15 26 -24
58 -24 78 -19 382 7 451 18 47 16 61 -7 42 -45 -38 -79 -256 -74 -483 3 -158
4 -165 34 -233 28 -61 32 -85 38 -191 l6 -122 -127 -4 c-94 -4 -146 -11 -198
-28 -121 -38 -308 -122 -327 -145 -10 -12 -66 -47 -125 -76 -140 -69 -163 -90
-163 -145 0 -48 31 -128 62 -161 32 -34 84 -47 183 -45 98 2 176 20 294 71 40
17 85 31 100 31 33 0 101 -19 101 -28 0 -4 -38 -31 -84 -60 -62 -39 -92 -65
-114 -100 -35 -54 -62 -117 -62 -141 1 -9 11 9 24 39 47 113 68 135 221 228
82 50 145 70 358 113 235 47 343 54 397 25 60 -33 317 -307 620 -661 41 -48
60 -64 60 -50 0 7 -241 282 -387 442 -57 62 -103 114 -103 116 0 2 89 -41 198
-95 134 -67 213 -101 246 -105 36 -4 47 -3 42 5 -4 7 -23 12 -42 12 -25 0 -90
27 -207 84 -223 110 -270 137 -335 197 -90 82 -119 93 -232 84 -110 -8 -121
-8 -213 1 -75 7 -110 -3 -167 -47 -19 -14 -51 -30 -70 -34 -19 -4 -53 -16 -76
-25 -40 -18 -43 -17 -113 3 l-71 21 -52 -23 c-162 -71 -217 -85 -340 -86 -135
0 -158 10 -195 86 l-21 44 72 6 c152 13 230 94 213 222 -3 24 -3 47 1 53 4 5
32 20 62 33 300 127 319 131 651 131 l265 0 110 -35 c176 -57 250 -100 502
-287 301 -224 388 -285 492 -341 101 -54 172 -103 198 -137 64 -85 137 -261
237 -575 205 -648 309 -902 472 -1148 116 -176 198 -243 495 -406 158 -86 383
-201 395 -201 15 0 -35 28 -197 112 -530 275 -625 359 -806 719 -107 215 -197
452 -319 844 -130 417 -213 613 -289 688 -21 20 -96 69 -165 109 -121 68 -407
268 -612 427 -123 96 -224 150 -381 203 -122 42 -125 42 -268 43 l-145 0 -9
133 -8 133 47 137 c38 110 66 168 141 294 52 86 101 172 108 190 18 43 30 131
21 157 -11 34 -25 24 -25 -18 0 -30 -12 -56 -53 -117 -30 -44 -73 -112 -96
-151 -24 -40 -46 -73 -49 -73 -10 0 7 266 23 345 22 113 73 310 90 352 l15 36
68 -6 c113 -11 172 10 482 173 52 27 103 50 113 50 23 0 22 17 -3 25 -47 15
-158 -19 -312 -96 -65 -33 -118 -54 -118 -48 0 6 15 29 34 52 18 23 69 114
113 202 76 151 182 341 238 423 14 20 25 42 25 49 0 6 -17 26 -39 45 -21 18
-50 52 -64 75 -14 23 -30 44 -36 47 -5 3 -32 1 -59 -5 -39 -8 -62 -7 -109 5
-53 14 -66 14 -117 1 -32 -8 -66 -20 -77 -25 -14 -8 -23 -6 -36 6 -50 45 -127
82 -185 89 -52 6 -66 13 -109 51 -58 52 -85 56 -94 16z m81 -23 c40 -42 60
-52 127 -60 43 -5 71 -16 113 -45 31 -21 57 -41 60 -45 2 -4 -32 -35 -75 -69
l-80 -63 -3 -84 c-2 -47 0 -87 5 -90 5 -3 13 125 9 158 -2 12 160 131 206 152
48 21 51 21 250 15 l93 -3 29 -46 c16 -26 42 -56 59 -68 17 -13 31 -27 31 -32
0 -5 -39 -76 -87 -158 -49 -81 -117 -205 -153 -274 -36 -70 -67 -127 -70 -127
-3 0 -18 28 -35 63 -37 77 -62 84 -131 37 -94 -66 -113 -88 -135 -164 -12 -39
-25 -75 -29 -80 -13 -14 -36 42 -68 168 -30 118 -59 173 -81 151 -6 -6 -13
-64 -17 -130 -9 -154 -22 -124 -24 55 0 74 -4 152 -9 172 -8 33 -7 37 13 40
19 3 21 10 24 73 5 93 -12 195 -54 324 -39 123 -43 161 -16 161 10 0 31 -14
48 -31z m-89 -1591 c-3 -8 -6 -5 -6 6 -1 11 2 17 5 13 3 -3 4 -12 1 -19z
m-622 -1234 c-16 -90 -160 -165 -262 -138 -18 5 -23 14 -23 39 0 42 18 58 158
130 l117 61 9 -27 c5 -15 5 -45 1 -65z m865 -114 c8 -5 11 -10 7 -10 -11 0
-158 -30 -181 -37 -34 -10 -6 18 38 38 44 20 112 25 136 9z"/>
<path d="M3737 4302 l-67 -99 -67 -18 c-38 -10 -99 -29 -136 -41 -84 -29 -256
-60 -397 -73 -120 -11 -298 -59 -441 -119 -52 -21 -128 -47 -169 -57 -41 -10
-118 -36 -170 -58 -52 -21 -133 -55 -179 -74 -47 -19 -119 -52 -160 -72 -42
-21 -101 -46 -131 -56 -62 -20 -552 -267 -544 -274 2 -3 118 52 257 122 138
70 281 138 317 151 36 13 152 63 259 110 191 85 268 114 406 154 39 11 108 36
155 55 118 50 304 96 435 108 136 13 312 49 430 89 50 17 122 35 160 41 39 6
124 21 190 34 205 39 367 41 531 5 l50 -11 -23 -48 c-19 -38 -26 -78 -38 -212
-8 -90 -17 -173 -20 -184 -15 -56 46 -93 157 -94 57 -1 71 3 96 24 l29 24 6
-48 c6 -50 -3 -105 -25 -158 l-13 -31 -35 29 c-93 79 -195 152 -243 174 -66
31 -106 31 -282 0 -77 -13 -275 -43 -440 -65 -165 -23 -304 -46 -310 -51 -7
-7 -2 -9 15 -5 25 5 247 37 530 76 80 11 197 29 260 40 167 30 197 23 346 -88
149 -110 207 -189 208 -283 0 -96 -100 -214 -217 -254 l-57 -19 -71 38 c-55
30 -86 40 -142 45 l-72 7 85 13 c83 13 136 30 97 31 -10 0 -50 -7 -90 -15
-126 -25 -405 -72 -627 -106 -118 -18 -217 -34 -219 -36 -15 -12 23 -9 154 13
159 26 482 68 602 79 124 12 217 -30 335 -147 72 -72 98 -122 98 -188 0 -62
-24 -111 -80 -165 -39 -38 -44 -40 -103 -39 -38 0 -98 11 -155 29 l-94 29
-111 -27 c-62 -14 -195 -40 -297 -57 -102 -17 -223 -42 -270 -55 -108 -32
-220 -76 -220 -86 0 -5 19 0 43 10 67 29 208 74 213 68 3 -3 1 -20 -3 -38 -9
-32 -13 -35 -66 -43 -98 -16 -62 -24 41 -9 53 7 144 17 202 22 108 9 340 59
340 74 0 7 -19 4 -57 -10 -19 -7 -16 15 9 58 22 40 39 49 128 68 37 8 59 6
120 -11 41 -12 78 -24 83 -28 4 -3 19 -53 32 -110 28 -114 27 -129 -23 -217
-49 -87 -109 -132 -282 -206 -72 -31 -67 -30 -334 -72 -163 -26 -267 -48 -355
-76 -69 -22 -229 -62 -356 -89 -126 -26 -270 -60 -320 -74 -115 -33 -229 -50
-489 -76 -162 -16 -220 -19 -260 -11 -67 14 -344 29 -636 35 -199 4 -214 3
-95 -4 77 -5 256 -13 397 -19 141 -6 283 -16 315 -22 66 -13 165 -7 423 22
188 22 221 28 435 82 77 19 217 51 310 71 94 19 220 51 280 71 103 33 231 59
500 100 136 20 332 99 409 164 23 20 81 110 101 157 20 47 19 66 -5 160 -29
115 -31 110 44 106 64 -4 65 -3 111 39 54 50 83 101 91 163 9 60 -26 133 -99
212 l-56 61 54 17 c71 22 131 68 180 140 36 52 40 64 40 119 0 46 -6 75 -25
112 l-25 51 23 54 c20 49 22 66 17 153 -3 53 -2 97 2 97 4 0 41 -13 82 -29 42
-17 84 -32 95 -36 14 -4 17 -11 12 -28 -4 -12 -11 -83 -16 -157 -4 -74 -13
-166 -20 -203 -7 -39 -10 -109 -8 -160 6 -100 -15 -45 225 -612 30 -71 79
-191 109 -265 70 -173 190 -420 249 -511 53 -82 268 -333 317 -371 54 -41 129
-75 226 -103 160 -44 331 -129 612 -303 124 -76 394 -256 533 -354 54 -39 101
-68 104 -65 11 11 -469 336 -712 482 -220 133 -441 236 -555 260 -52 11 -134
50 -187 87 -55 40 -250 262 -316 361 -60 90 -149 266 -215 422 -258 616 -361
866 -371 900 -15 55 -14 133 4 240 8 50 15 128 15 175 0 95 20 186 51 237 11
18 17 33 12 33 -6 0 -16 -12 -23 -26 -13 -23 -19 -25 -53 -20 -45 7 -148 58
-226 110 -30 20 -59 35 -64 33 -6 -2 17 -20 49 -42 32 -21 60 -39 62 -41 10
-7 -34 -68 -61 -85 -38 -24 -132 -23 -182 2 -35 17 -34 10 -17 251 9 124 14
154 37 202 44 94 83 107 261 94 266 -20 428 -56 533 -118 41 -23 49 -35 79
-109 19 -46 53 -160 77 -255 24 -94 44 -159 44 -144 1 38 -61 278 -99 381 -39
107 -65 135 -167 176 -89 35 -184 54 -395 76 -198 20 -225 19 -275 -9 -41 -24
-42 -24 -110 -8 -103 24 -378 21 -506 -5 l-99 -20 6 21 c13 42 19 156 9 156
-5 0 -39 -44 -76 -98z m62 -6 c-8 -46 -17 -69 -29 -76 -20 -11 -70 -14 -70 -5
0 11 102 156 106 152 3 -3 0 -35 -7 -71z m127 -1774 c-24 -47 -25 -48 -98 -65
-64 -15 -253 -37 -315 -37 -20 0 -22 4 -16 33 3 17 9 35 12 39 10 12 353 75
414 77 l27 1 -24 -48z"/>
</g>
</svg>
